# xmcd
#
# Track frame offsets:
#	150
#	12621
#	25453
#	44910
#	63322
#	79659
#	94886
#	109395
#	121594
#	139436
#	150575
#	163427
#	177463
#	187819
#	199842
#
# Disc length: 2834 seconds
#
# Revision: 1
# Processed by: cddbd v1.5.2PL0 Copyright (c) Steve Scherf et al.
# Submitted via: audiograbber 1.83.01
#
DISCID=da0b100f
DTITLE=Gene Watson - CB90081 Chartbuster (CB)
DYEAR=1900
DGENRE=Karaoke
TTITLE0=Should I Come Home (Or Should I Go (CB)
TTITLE1=Fourteen Carat Mind (CB)
TTITLE2=Farewell Party (CB)
TTITLE3=Paper Rosie (CB)
TTITLE4=Love In The Hot Afternoon (CB)
TTITLE5=Where Love Begins (CB)
TTITLE6=You Could Know As Much About A Stranger (CB)
TTITLE7=Pick The Wildwood Flower (CB)
TTITLE8=Nothing Sure Looked Good On You (CB)
TTITLE9=Speak Softly (You're Talking To My Heart) (CB)
TTITLE10=You're Out Doing What I'm Here Doing (CB)
TTITLE11=Sometimes I Get Lucky And Forget (CB)
TTITLE12=Drinkin' My Way Back Home (CB)
TTITLE13=Forever Again (CB)
TTITLE14=Got No Reason Now For Going Home (CB)
EXTD=
EXTT0=
EXTT1=
EXTT2=
EXTT3=
EXTT4=
EXTT5=
EXTT6=
EXTT7=
EXTT8=
EXTT9=
EXTT10=
EXTT11=
EXTT12=
EXTT13=
EXTT14=
PLAYORDER=
